PathFileType	4	(X/Y/Z)	T1_P1_NoVision_Movement_2_0-680.trc
DataRate	CameraRate	NumFrames	NumMarkers	Units	OrigDataRate	OrigDataStartFrame	OrigNumFrames
60	60	4	27	m	60	425	680
Frame#	Time	RHip			RKnee			RAnkle			RBigToe			RSmallToe			RHeel			LHip			LKnee			LAnkle			LBigToe			LSmallToe			LHeel			Neck			Head			Nose			RShoulder			RElbow			RWrist			RThumb			RIndex			RPinky			LShoulder			LElbow			LWrist			LThumb			LIndex			LPinky		
		X1	Y1	Z1	X2	Y2	Z2	X3	Y3	Z3	X4	Y4	Z4	X5	Y5	Z5	X6	Y6	Z6	X7	Y7	Z7	X8	Y8	Z8	X9	Y9	Z9	X10	Y10	Z10	X11	Y11	Z11	X12	Y12	Z12	X13	Y13	Z13	X14	Y14	Z14	X15	Y15	Z15	X16	Y16	Z16	X17	Y17	Z17	X18	Y18	Z18	X19	Y19	Z19	X20	Y20	Z20	X21	Y21	Z21	X22	Y22	Z22	X23	Y23	Z23	X24	Y24	Z24	X25	Y25	Z25	X26	Y26	Z26	X27	Y27	Z27
426	7.1	-82.89693511424068	3860.010958299297	-581.3051108690413	262.4323115053779	3995.2329109746133	-530.4207590417736	618.6147770005198	4145.732980317969	-524.5387106380088	702.6299809199959	4095.4850848652013	-478.460682978038	706.5759690681051	4098.984143338356	-540.8157010793354	656.0516987600334	4194.2335031085295	-532.1738782268906	-114.85325918803952	3927.019557223872	-362.5253379558136	222.89941669337895	4010.5480633200277	-360.46199308885747	577.8020841573572	4194.741409324116	-382.98090781844076	675.0119451961359	4188.665613614328	-351.8023225481437	643.9968621591896	4249.739327042019	-338.1824624145113	610.5292867500679	4257.3454833273445	-424.8130712853259	-669.9002330684531	3716.4429788769457	-490.3493825124671	-902.0412543673303	3543.327266684545	-431.0631370887995	-742.5687976508233	3583.663222072781	-418.4119112505371	-569.9827351176164	3638.5686525320507	-595.9302456816797	-310.9102166153114	3657.073132062245	-649.5050595313522	-420.79074186620204	3453.0840118147935	-484.005700432717	-521.5309748913618	3417.054348969015	-410.09958886941155	-520.1591725592948	3412.301317164818	-407.57495514393406	-444.0560249246053	3432.7991955293514	-413.8172216404016	-633.9812851944612	3852.9545674286765	-387.0041001129657	-410.5085524978424	4001.436193711125	-341.6593365240051	-150.5015166133043	4004.678362570778	-256.1476624017382	-9.72882232613727	3986.067710694795	-245.8518563229491	14.560372296750955	4005.6364745054857	-233.13831318775271	-4.742379600153948	4026.8061194057955	-236.08281363922174
427	7.116666666666666	-82.80276430830739	3860.240196358977	-581.3607361969279	262.70006298476585	3995.6771252289836	-530.797791929428	624.9483413268221	4149.020863250066	-524.0581947836572	702.8232044108731	4095.7541828216995	-478.61272389835597	706.6738445560042	4099.238519394836	-540.8652575838868	656.1811201987119	4194.13526637373	-532.0795610357948	-114.12706592712667	3928.9730068479125	-369.17242050461476	222.95755856674228	4010.4095697882544	-360.37656857501844	584.5138547068804	4197.90895491083	-382.13617283580083	680.8814973343538	4192.135425228804	-351.21098339659574	651.1506564623811	4254.400711312487	-340.24624824045827	612.2809137854224	4238.479876191463	-409.8698263632073	-669.9310741573595	3716.7506331218287	-490.4633127158262	-902.0991859871153	3543.2903966687104	-431.02422525929313	-742.4949295845829	3583.6098195915556	-418.3635706754984	-570.0605753903676	3638.9485051434876	-596.0943248037561	-310.96924986472635	3656.5660358777554	-649.3054029673638	-425.1237886609256	3451.667194767771	-484.29821603227776	-527.2421743250756	3429.806222340294	-422.32642952145477	-521.6021758034391	3425.80084878061	-419.73954290518805	-449.2475453951523	3428.782110958836	-412.8550534998103	-634.0500297180929	3853.1646457295615	-387.08891600234244	-405.9787789536577	4002.579096917194	-341.6694757171637	-150.8531431033909	3984.8050107060144	-242.95092416193228	-14.429209779413737	3982.8895418110033	-244.3897235142346	8.423498245224547	4003.6920984262665	-233.8848044568416	-4.8230122112336975	4027.037214657439	-236.23585191404206
428	7.133333333333334	-82.8920558476688	3860.6829963597597	-581.4757439427142	263.42568054651133	3996.651974612745	-537.2512786788816	624.8404282137468	4148.648917159874	-524.0730002495211	702.7060901511661	4095.5126699216366	-478.53866046569163	701.5385055809181	4067.4016912480247	-533.5464061651007	656.2147666560649	4193.93088364796	-532.207140589722	-114.8940066728941	3927.121490989961	-362.51046471178046	222.88716354589988	4010.4579196481945	-360.4120644312807	584.437146290612	4198.252726583341	-382.37377499767643	673.6302813788265	4187.550689097119	-349.11881546148527	643.9973815373455	4249.8826882828735	-338.27118025430934	610.6179533372921	4257.490859823399	-424.9815975502545	-674.1213257583264	3714.560938761589	-489.5461376326856	-902.0619643506577	3543.1225239736414	-430.89354388660786	-742.4184595602065	3583.410479728947	-418.24566832794943	-570.1518903286087	3639.0033237594525	-595.9573851817986	-311.06923101456704	3656.069993035357	-649.1121934897182	-420.8218812203219	3452.1222090851784	-484.2229479519638	-528.150175018951	3431.525361196549	-423.301458181855	-522.3287225736792	3428.933789145582	-420.8889853453502	-452.79096316431406	3428.528466899259	-413.75581369717105	-629.1700350703758	3854.171406073614	-386.90654468491533	-405.9785451712109	4002.7692041526975	-341.7023758961872	-150.46855924040966	4004.986988750302	-256.2867149497623	-13.270568417325524	4002.5940040895794	-257.51483489529824	8.314928796296801	4004.4692017037637	-234.42956612897714	-7.427766214076886	4042.5849145839916	-246.7687289776151
429	7.15	-82.96092941089357	3860.6139567961554	-581.4283918352877	262.40856565495864	3995.495476608656	-530.685652188962	624.8224578864723	4149.020024779225	-524.1734499557945	702.847238663757	4095.8569150768003	-478.71387653471544	701.4872332477813	4067.5412163372525	-533.5847791581067	656.1581514991173	4194.303840255369	-532.31534263549	-114.91758752722116	3927.3138142460225	-362.59253298480536	222.80268632174594	4010.3325274061876	-360.3425622137703	577.8301114949309	4194.957583605304	-383.0821444487458	681.0459073875845	4192.255467456615	-351.2303951427755	651.1692673228864	4254.519180902313	-340.3394876022849	610.5721807932641	4257.598969838265	-424.95596032593426	-674.1493868366634	3714.684214234328	-489.73303051675197	-902.1037336363693	3543.230650072879	-430.9646824496059	-742.4355880581928	3583.6069516244424	-418.4002883698889	-570.1183702799324	3638.7496061720503	-595.8794545087244	-309.00245227277725	3630.172514310918	-641.6324309815652	-425.2163410668249	3451.679810055234	-484.3221421722464	-532.6787902977575	3430.5490017838997	-418.1941379866013	-522.4460723057011	3428.9027901244744	-420.72199327055307	-452.83918453519357	3429.080561301736	-413.89035889757315	-634.0694203660775	3853.309184306483	-387.02970112485787	-400.9681227626058	4006.3941611703426	-343.1447177910324	-150.4091904104101	4004.9599341633966	-256.21056102415463	-13.130065489424581	4002.447949485846	-257.33760656941786	8.387496656805887	4004.182715310518	-234.22237821255445	-3.6874509171802385	4045.1590782303815	-247.7556557258754
